<svg viewBox="0 0 189.51 48.32" xmlns="http://www.w3.org/2000/svg" data-name="Layer 2" id="Layer_2">
  <defs>
    <style>
      .cls-1 {
        fill: #231f20;
      }
    </style>
  </defs>
  <g id="Text">
    <g>
      <path d="M27.73,35.17c-1.84-1.14-2.18-2.69-2.18-5.87V6.27c0-3.18.34-4.73,2.18-5.87C27.92.28,27.84,0,27.62,0h-10.21C17.2,0,17.12.28,17.31.4c1.84,1.14,2.18,2.69,2.18,5.87v10.78h-11.13V6.27c0-3.18.34-4.73,2.15-5.87C10.69.28,10.61,0,10.4,0H.21C0,0-.08.28.1.4c1.8,1.14,2.15,2.69,2.15,5.87v23.03c0,3.18-.34,4.73-2.15,5.87-.18.12-.11.4.11.4h10.18c.22,0,.29-.28.11-.4-1.8-1.14-2.15-2.69-2.15-5.87v-10.78h11.13v10.78c0,3.18-.34,4.73-2.18,5.87-.19.12-.11.4.11.4h10.21c.22,0,.29-.28.11-.4Z" class="cls-1"></path>
      <path d="M39.67,8.7c-5.89,0-10.32,5.73-10.32,13.73s4.43,13.78,10.32,13.78,10.27-5.73,10.27-13.78-4.38-13.73-10.27-13.73ZM39.67,35.19c-3.03,0-4.16-5.41-4.16-12.76s1.14-12.7,4.16-12.7,4.11,5.35,4.11,12.7-1.08,12.76-4.11,12.76Z" class="cls-1"></path>
      <path d="M73.99,35.18c-1.37-.91-1.62-1.84-1.62-4.96v-14.49c0-4.59-2.32-7.03-6.05-7.03-3.3,0-5.78,2.16-6.81,6v-5.33l-7.51-.02c-.21,0-.29.27-.12.39,1.43.98,1.84,2.21,1.84,5.44v15.03c0,3.13-.21,4.05-1.57,4.96-.17.12-.09.39.12.39h8.75c.21,0,.29-.27.12-.39-1.34-.91-1.63-1.84-1.63-4.96v-11.35c0-4.97,2-6.86,4.05-6.86,2.38,0,3.03,1.78,3.03,4v14.22c0,3.12-.25,4.05-1.58,4.96-.18.12-.1.39.12.39h8.75c.21,0,.29-.27.12-.39Z" class="cls-1"></path>
      <path d="M116.48,9.35h-5.44c-.21,0-.3.28-.11.39,1.13.68,1.6,1.68,1.6,3.01,0,.81-.16,1.73-.49,2.7l-4.05,13.41-4.38-13.89c-.38-1.14-.65-2.16-.65-2.97,0-.92.36-1.66,1.18-2.26.17-.12.1-.39-.12-.39h-9c-.19,0-.29.24-.14.37,1.25,1.17,1.71,1.97,2.89,5.36l7.62,21.73-1.24,3.95c-.97,3.03-1.84,4.27-3.41,4.27-1.03,0-1.84-.76-1.84-2,0-1.01.47-1.75,1.04-2.15.14-.1.14-.32-.02-.4-.33-.17-.72-.26-1.24-.26-1.73,0-3.78,1.35-3.78,3.95s2.05,4.16,4.27,4.16c3.57,0,5.03-3.13,6.22-6.76l8.27-26.27c1.02-3.41,1.65-4.45,2.95-5.57.15-.13.06-.38-.14-.38Z" class="cls-1"></path>
      <path d="M133.81,0h-11.43c-.22,0-.29.28-.11.39,1.84,1.14,2.18,2.69,2.18,5.87v23.03c0,3.18-.34,4.73-2.18,5.87-.19.12-.11.4.11.4h10.91c.23,0,.3-.31.1-.41-2.48-1.23-2.88-2.59-2.88-5.7v-8.11s3.3,0,3.3,0c7.41,0,13.08-3.43,13.08-10.73S141.22,0,133.81,0ZM132.41,20.05h-1.89V1.19h1.89c5.57,0,8.11,3.65,8.11,9.43s-2.54,9.43-8.11,9.43Z" class="cls-1"></path>
      <path d="M157.58,8.7c-5.89,0-10.32,5.73-10.32,13.73s4.43,13.78,10.32,13.78,10.27-5.73,10.27-13.78-4.38-13.73-10.27-13.73ZM157.58,35.19c-3.03,0-4.16-5.41-4.16-12.76s1.14-12.7,4.16-12.7,4.11,5.35,4.11,12.7-1.08,12.76-4.11,12.76Z" class="cls-1"></path>
      <path d="M85.93,8.7c-5.35,0-10.05,5.62-10.05,13.84,0,8.65,4.65,13.68,10.05,13.68,4.46,0,7.17-2.72,8.26-7.4.06-.27-.31-.4-.43-.15-1.54,3.08-3.41,4.57-5.61,4.47-4.27-.18-6.27-4.81-6.27-11.78h12.3c.25,0,.46-.21.45-.46-.11-7.16-2.82-12.19-8.7-12.19ZM88.67,20.11h-6.74c.16-5.84,1.68-10.38,4-10.38,2.84,0,3.17,4.55,3.19,9.92,0,.25-.2.45-.45.45Z" class="cls-1"></path>
      <path d="M182.89,28.65c-.71,2.1-1.8,4.4-3.53,4.38-1.68-.02-2.38-1.3-2.38-4.54V10.65h5.19c.15,0,.27-.12.27-.27v-.86c0-.15-.12-.28-.27-.28h-5.19V0h-.49c-.97,5.35-3.73,9.13-7.78,10.22v.43h2.49v17.84c0,5.41,2.11,7.73,5.84,7.73s5.68-2.81,6.2-7.49c.02-.21-.28-.28-.35-.08Z" class="cls-1"></path>
      <polygon points="188.88 32.58 187.97 33.74 187.04 32.58 186.41 32.58 186.41 35.62 187.11 35.62 187.11 33.65 187.89 34.6 188.03 34.6 188.82 33.66 188.82 35.62 189.51 35.62 189.51 32.58 188.88 32.58" class="cls-1"></polygon>
      <polygon points="183.47 33.19 184.34 33.19 184.34 35.62 185.05 35.62 185.05 33.19 185.92 33.19 185.92 32.58 183.47 32.58 183.47 33.19" class="cls-1"></polygon>
    </g>
  </g>
</svg>