<?xml version="1.0" encoding="UTF-8"?><svg version="1.1" width="160px" height="40px" viewBox="0 0 160.0 40.0" xmlns="http://www.w3.org/2000/svg" xmlns:xlink="http://www.w3.org/1999/xlink"><defs><clipPath id="i0"><path d="M2.40890924,0 C2.78142098,0 3.12289007,0.0677861655 3.42710799,0.209520875 C3.85549649,0.394392235 4.20317411,0.690186412 4.47014086,1.0969034 C4.7371076,1.5036204 4.86748671,1.94731166 4.86748671,2.41565244 C4.86127818,3.08735172 4.62535408,3.66045293 4.15350588,4.13495609 C3.68165768,4.60945925 3.10426448,4.84362964 2.43374335,4.84362964 C1.76322223,4.84362964 1.18582903,4.60945925 0.707772302,4.13495609 C0.235924101,3.66045293 0,3.08735172 0,2.41565244 C0,2.03974734 0.0745023476,1.70081652 0.229715572,1.39269758 C0.384928796,1.06609151 0.60222731,0.788784471 0.881611113,0.56077646 C1.33483373,0.191033739 1.8439331,0 2.40890924,0 Z M2.41511777,0.351255585 C1.86255869,0.351255585 1.38450196,0.554614081 0.987156106,0.961331074 C0.589810252,1.36804807 0.391137325,1.85487598 0.391137325,2.41565244 C0.391137325,2.9764289 0.589810252,3.47558157 0.987156106,3.88846095 C1.38450196,4.29517794 1.86876722,4.49853644 2.43374335,4.49853644 C2.99871949,4.49853644 3.47677622,4.29517794 3.87412208,3.89462332 C4.27146793,3.48790633 4.47014086,3.00107842 4.47014086,2.42181482 C4.47014086,2.11369589 4.38942998,1.79941457 4.23421676,1.46664613 C4.07900353,1.15852719 3.87412208,0.912032044 3.61957239,0.733323063 C3.25947771,0.480665537 2.86213185,0.351255585 2.41511777,0.351255585 Z M2.10469132,1.02295486 C2.49582864,1.02295486 2.78142098,1.09074103 2.96146832,1.23247574 C3.16014124,1.39269758 3.25947771,1.60221846 3.25947771,1.86103836 C3.25947771,2.03358496 3.20360095,2.19996919 3.09805595,2.34786628 C2.99251096,2.49576336 2.85592332,2.58819904 2.68829304,2.63749807 L2.65104187,2.64982283 L2.66966746,2.64982283 L3.58232121,3.8145124 L2.92421714,3.8145124 L2.08606573,2.71144662 L2.08606573,3.8145124 L1.54592371,3.8145124 L1.54592371,1.02295486 L2.10469132,1.02295486 Z M2.20402778,1.49745802 L2.09227426,1.49745802 L2.09227426,2.26159297 L2.1854022,2.26159297 C2.57033099,2.26159297 2.76279539,2.13218302 2.76279539,1.86720074 C2.76279539,1.62070559 2.57653952,1.49745802 2.20402778,1.49745802 Z"></path></clipPath><clipPath id="i1"><path d="M17.688099,0 L21.0717473,4.14111847 L21.0717473,8.91696195 L9.24449963,8.91696195 L9.24449963,12.8670467 L17.2721276,12.8670467 L20.6495673,17.0143275 L20.6495673,21.790171 L9.24449963,21.790171 L9.24449963,37.8246803 L4.12867176,37.8246803 L0,34.4168849 L0,0 L17.688099,0 Z"></path></clipPath><clipPath id="i2"><path d="M5.86705987,0 L9.24449963,4.14111847 L9.24449963,37.8246803 L4.12246323,37.8246803 L0,34.4168849 L0,0 L5.86705987,0 Z"></path></clipPath><clipPath id="i3"><path d="M5.86085134,0 L9.24449963,4.14111847 L9.24449963,28.901556 L15.8379574,28.901556 L19.2216057,33.0426745 L19.2216057,37.8246803 L4.12246323,37.8246803 L0,34.4168849 L0,0 L5.86085134,0 Z"></path></clipPath><clipPath id="i4"><path d="M5.86705987,0 L9.25070816,4.14111847 L9.25070816,28.901556 L15.8441659,28.901556 L19.2278142,33.0426745 L19.2278142,37.8246803 L4.12867176,37.8246803 L0,34.4168849 L0,0 L5.86705987,0 Z"></path></clipPath><clipPath id="i5"><path d="M5.48213108,0 L10.6041675,1.97812356 L13.8388111,5.9528578 L7.57440534,18.4316746 L4.23421676,17.0574642 L0,13.4832845 L5.48213108,0 Z"></path></clipPath><clipPath id="i6"><path d="M18.1971984,0 C23.1143533,0 27.3858213,1.76860268 30.8998487,5.25650901 C31.9242559,6.27330149 32.7996585,7.35788014 33.5322649,8.4979202 C33.8240658,8.75057772 34.1096581,9.01556001 34.3890419,9.29286705 C37.8534011,12.7191496 39.5917892,16.810969 39.5917892,21.6545987 C39.5917892,26.4982283 37.8534011,30.6085349 34.3642078,33.979356 C30.8625975,37.3686643 26.6407978,39.0633184 21.6863917,39.0633184 C17.3031702,39.0633184 13.3731714,37.5535357 9.88397811,34.5462949 C9.20103993,33.9547065 8.58018703,33.3261439 8.0152109,32.6667694 C7.28881301,32.1861038 6.57483218,31.6499769 5.88568546,31.0522262 C1.98052074,27.6629179 0,23.1643815 0,17.6860268 C0,12.8670467 1.80668193,8.66430442 5.36416903,5.20720998 C8.90923907,1.75011554 13.2800435,0 18.1971984,0 Z M21.8912731,8.92312433 C18.3586202,8.92312433 15.3785263,10.1494377 12.9447829,12.5897396 C10.5110395,15.0053921 9.29416786,17.981821 9.29416786,21.5313511 C9.29416786,23.823756 9.77843312,25.8635033 10.7345466,27.6567555 C12.8889061,29.3205978 15.328858,30.171006 18.004734,30.171006 C21.4504676,30.171006 24.3871018,28.9755045 26.7525513,26.6153135 C29.1180009,24.230473 30.3162469,21.2786936 30.3162469,17.8462487 C30.3162469,14.9869049 29.4967211,12.4911416 27.9135462,10.3836081 C26.1316984,9.40995224 24.1263436,8.92312433 21.8912731,8.92312433 Z"></path></clipPath><clipPath id="i7"><path d="M12.1625082,0 C17.3776726,0 19.8176245,3.04421507 21.7546855,5.83577261 C23.0088084,7.64134956 24.2877653,9.05869666 24.7906562,9.85364351 L20.1342594,12.6020644 C20.1094253,12.5589277 17.5018432,9.18194423 17.4894261,9.15729472 C17.4273408,9.1326452 17.359047,9.11415807 17.2907532,9.09567093 C16.8561561,9.00323525 16.3843079,8.94777384 15.869,8.94777384 C14.4472469,8.94777384 13.2676264,9.34832845 12.3301385,10.1494377 C11.4547359,10.8765984 10.9953048,11.782468 10.9332195,12.8608843 L11.0015133,12.9656447 L14.3851616,14.3398552 C17.1852082,15.4675705 19.2712739,16.8664304 20.5812735,18.4994608 C21.009662,19.0294254 23.5241163,21.8579572 24.0456327,22.5050069 L24.0207986,22.4803574 C25.293547,24.0702511 25.9330255,26.0237252 25.9330255,28.3346172 C25.9330255,31.4342936 24.8899926,33.9916808 22.8101354,36.012941 C20.7116526,38.0526883 18.110279,39.0694808 15.0060145,39.0694808 C12.0631718,39.0694808 9.62942843,38.2067478 7.71099298,36.4751194 C7.10255714,35.9205053 4.43909821,33.6342628 3.70649179,32.9748883 C1.7570137,31.1939609 0.527724962,28.6612232 0.0496682317,25.4506239 L0,25.1116931 L5.92914516,23.8175936 L9.36246168,28.038823 C9.44938109,28.7474965 9.55492608,29.3822215 9.68530519,29.9368356 C10.2192387,30.0908951 10.8090489,30.171006 11.4547359,30.171006 C12.9634085,30.171006 14.1740716,29.6841781 15.1674363,28.6858727 C16.1608009,27.6875674 16.6450662,26.4489293 16.6450662,24.9083346 C16.6450662,24.2982591 16.5581468,23.7313203 16.3905165,23.2260052 C16.3780994,23.1951933 16.3656824,23.1643815 16.3532653,23.1335696 C16.2166777,23.0719458 16.08009,23.010322 15.9372939,22.9486982 L12.6653991,21.5991373 C10.293741,20.6069943 8.53672733,19.3745186 7.37573241,17.9078724 L7.33848124,17.8708982 C7.30743859,17.8400863 7.27018742,17.8092744 7.23914478,17.7723001 C7.20810213,17.7414882 7.17085096,17.7106763 7.13980831,17.673702 C7.10876567,17.6428902 7.07151449,17.6120783 7.04047185,17.575104 C7.0094292,17.5442921 6.97217803,17.5134802 6.94113538,17.4765059 C6.91009274,17.445694 6.87284157,17.4148821 6.84179892,17.3779079 C6.81075628,17.347096 6.7735051,17.3162841 6.74246246,17.2793098 C6.71141981,17.2484979 6.67416864,17.217686 6.64312599,17.1807118 C6.61208335,17.1498999 6.57483218,17.119088 6.54378953,17.0821137 L6.48791277,17.0266523 C3.24706065,15.0916654 1.59559194,12.5034663 1.59559194,9.29286705 C1.59559194,6.66153135 2.61999922,4.43691265 4.64397967,2.66830997 C6.64933452,0.899707287 9.18241434,0 12.1625082,0 Z"></path></clipPath><clipPath id="i8"><path d="M16.9430756,0 L16.9430756,4.77584348 L5.1220364,4.77584348 L5.1220364,12.8670467 L16.5271041,12.8670467 L16.5271041,17.6428902 L5.1220364,17.6428902 L5.1220364,33.6773995 L0,33.6773995 L0,0 L16.9430756,0 Z"></path></clipPath><clipPath id="i9"><path d="M5.1220364,0 L5.1220364,33.6773995 L0,33.6773995 L0,0 L5.1220364,0 Z"></path></clipPath><clipPath id="i10"><path d="M5.1220364,0 L5.1220364,28.901556 L15.0991424,28.901556 L15.0991424,33.6773995 L0,33.6773995 L0,0 L5.1220364,0 Z"></path></clipPath><clipPath id="i11"><path d="M5.1220364,0 L5.1220364,28.901556 L15.0991424,28.901556 L15.0991424,33.6773995 L0,33.6773995 L0,0 L5.1220364,0 Z"></path></clipPath><clipPath id="i12"><path d="M17.8246867,0 C22.723216,0 26.8022195,1.71930365 30.2603702,5.1455862 C33.7309379,8.57803112 35.469326,12.7006625 35.469326,17.5134802 C35.469326,22.326298 33.7247293,26.461254 30.2417446,29.8382376 C26.7401343,33.2275458 22.512126,34.9222 17.5639284,34.9222 C13.180707,34.9222 9.25070816,33.4185796 5.76151488,30.4051764 C1.92464398,27.0774919 0.00620852897,22.7145278 0.00620852897,17.3162841 C0,12.5774149 1.75080517,8.50408258 5.25241551,5.10244955 C8.74160879,1.70081652 12.9261573,0 17.8246867,0 Z M17.7563928,4.77584348 C14.2113228,4.77584348 11.243646,5.99599445 8.8099026,8.44245879 C6.37615925,10.8581112 5.15928757,13.8407025 5.15928757,17.3840703 C5.1654961,21.106147 6.42582748,24.1688492 8.94649024,26.5660145 C11.4547359,28.9631798 14.3479104,30.1648436 17.6260137,30.1648436 C21.1835008,30.1648436 24.1884289,28.9446927 26.6345893,26.4982283 C29.0807497,24.0271145 30.3038299,21.0137113 30.3038299,17.4703436 C30.3038299,13.9269758 29.0931667,10.870436 26.678049,8.44245879 C24.2753483,6.00215683 21.3014629,4.77584348 17.7563928,4.77584348 Z"></path></clipPath><clipPath id="i13"><path d="M5.2089558,0 L9.60459431,1.70081652 L3.34018858,14.1796333 L0,12.8054229 L5.2089558,0 Z"></path></clipPath><clipPath id="i14"><path d="M11.7217027,0 C15.6330759,0 18.6876722,1.89185025 20.8854914,5.66938838 L16.7381941,8.11585272 C15.962128,6.77861655 15.223313,5.90355877 14.5155407,5.49684178 C13.7829343,5.03466338 12.8392379,4.80049299 11.678243,4.80049299 C10.2564899,4.80049299 9.07686935,5.2010476 8.13938148,6.00215683 C7.2018936,6.78477892 6.7300454,7.77692189 6.7300454,8.96626098 C6.7300454,10.6116161 7.95933414,11.9303651 10.4241201,12.9348328 L13.8077684,14.3090433 C16.5643553,15.4121091 18.5759187,16.76167 19.8486671,18.3577261 C21.1214155,19.9476198 21.760894,21.9010938 21.760894,24.2119858 C21.760894,27.3116623 20.7178612,29.8690495 18.638004,31.8903097 C16.5395212,33.9238946 13.9443561,34.9468495 10.833883,34.9468495 C7.89104032,34.9468495 5.45729696,34.0841165 3.53886151,32.3524881 C1.65146871,30.6208597 0.471848201,28.1867201 0,25.0439069 L5.18412169,23.9100293 C5.42004579,25.8881528 5.8298087,27.2562009 6.41341042,28.0080111 C7.46886035,29.4623325 9.00857553,30.1894931 11.0263474,30.1894931 C12.6219394,30.1894931 13.9505646,29.6595286 15.0060145,28.5995994 C16.0614644,27.5396703 16.5891894,26.1901094 16.5891894,24.5632414 C16.5891894,23.9100293 16.4960615,23.3061162 16.3160141,22.7638268 C16.1297583,22.2215375 15.8441659,21.7162225 15.4592371,21.2602064 C15.0743083,20.8041904 14.5714175,20.3728239 13.9567731,19.9722693 C13.3421287,19.5717147 12.6095223,19.1896472 11.7589539,18.8260669 L8.4870591,17.4765059 C3.84307943,15.5291943 1.5210896,12.6760129 1.5210896,8.92312433 C1.5210896,6.39038669 2.49582864,4.2766908 4.44530674,2.57587429 C6.39478484,0.862733015 8.81611113,0 11.7217027,0 Z"></path></clipPath></defs><g transform="translate(155.13251329013235 1.0167924818980123)"><g clip-path="url(#i0)"><polygon points="0,0 4.86748671,0 4.86748671,4.84362964 0,4.84362964 0,0" stroke="none" fill="#231F20"></polygon></g></g><g transform="translate(0.0 1.5714065629332943)"><g clip-path="url(#i1)"><polygon points="0,0 21.0717473,0 21.0717473,37.8246803 0,37.8246803 0,0" stroke="none" fill="#231F20"></polygon></g></g><g transform="translate(23.238523922238173 1.5714065629332943)"><g clip-path="url(#i2)"><polygon points="0,0 9.24449963,0 9.24449963,37.8246803 0,37.8246803 0,0" stroke="none" fill="#231F20"></polygon></g></g><g transform="translate(36.4688991502076 1.5714065629332943)"><g clip-path="url(#i3)"><polygon points="0,0 19.2216057,0 19.2216057,37.8246803 0,37.8246803 0,0" stroke="none" fill="#231F20"></polygon></g></g><g transform="translate(56.553490357378465 1.5714065629332943)"><g clip-path="url(#i4)"><polygon points="0,0 19.2278142,0 19.2278142,37.8246803 0,37.8246803 0,0" stroke="none" fill="#231F20"></polygon></g></g><g transform="translate(115.64006053315742 0.0)"><g clip-path="url(#i5)"><polygon points="0,0 13.8388111,0 13.8388111,18.4316746 0,18.4316746 0,0" stroke="none" fill="#231F20"></polygon></g></g><g transform="translate(74.94936168561563 0.9366815590818085)"><g clip-path="url(#i6)"><polygon points="0,0 39.5917892,0 39.5917892,39.0633184 0,39.0633184 0,0" stroke="none" fill="#231F20"></polygon></g></g><g transform="translate(130.33564859726044 0.9120320443691234)"><g clip-path="url(#i7)"><polygon points="0,0 25.9330255,0 25.9330255,39.0694808 0,39.0694808 0,0" stroke="none" fill="#231F20"></polygon></g></g><g transform="translate(0.3725117380000782 1.9411492836234778)"><g clip-path="url(#i8)"><polygon points="0,0 16.9430756,0 16.9430756,33.6773995 0,33.6773995 0,0" stroke="none" fill="#FFFFFF"></polygon></g></g><g transform="translate(23.611035660238258 1.9411492836234778)"><g clip-path="url(#i9)"><polygon points="0,0 5.1220364,0 5.1220364,33.6773995 0,33.6773995 0,0" stroke="none" fill="#FFFFFF"></polygon></g></g><g transform="translate(36.83520235924102 1.9411492836234778)"><g clip-path="url(#i10)"><polygon points="0,0 15.0991424,0 15.0991424,33.6773995 0,33.6773995 0,0" stroke="none" fill="#FFFFFF"></polygon></g></g><g transform="translate(56.926002095378536 1.9411492836234778)"><g clip-path="url(#i11)"><polygon points="0,0 15.0991424,0 15.0991424,33.6773995 0,33.6773995 0,0" stroke="none" fill="#FFFFFF"></polygon></g></g><g transform="translate(75.32808195258235 1.306424279771992)"><g clip-path="url(#i12)"><polygon points="0,0 35.469326,0 35.469326,34.9222 0,34.9222 0,0" stroke="none" fill="#FFFFFF"></polygon></g></g><g transform="translate(116.12432579255754 0.47450315821907196)"><g clip-path="url(#i13)"><polygon points="0,0 9.60459431,0 9.60459431,14.1796333 0,14.1796333 0,0" stroke="none" fill="#FFFFFF"></polygon></g></g><g transform="translate(130.77024562492727 1.2817747650593176)"><g clip-path="url(#i14)"><polygon points="0,0 21.760894,0 21.760894,34.9468495 0,34.9468495 0,0" stroke="none" fill="#FFFFFF"></polygon></g></g></svg>